SplineFontDB: 3.2
FontName: Hatami
FullName: Hatami Regular
FamilyName: Hatami
Weight: Regular
Copyright: Copyright (c) 2020, cancrizans
UComments: "2020-2-20: Created with FontForge (http://fontforge.org)"
Version: 001.000
ItalicAngle: 0
UnderlinePosition: -100
UnderlineWidth: 50
Ascent: 800
Descent: 200
InvalidEm: 0
LayerCount: 2
Layer: 0 0 "Back" 1
Layer: 1 0 "Fore" 0
XUID: [1021 449 -834741842 1043]
StyleMap: 0x0000
FSType: 0
OS2Version: 0
OS2_WeightWidthSlopeOnly: 0
OS2_UseTypoMetrics: 1
CreationTime: 1582197146
ModificationTime: 1590181149
PfmFamily: 33
TTFWeight: 400
TTFWidth: 5
LineGap: 90
VLineGap: 0
OS2TypoAscent: 0
OS2TypoAOffset: 1
OS2TypoDescent: 0
OS2TypoDOffset: 1
OS2TypoLinegap: 90
OS2WinAscent: 0
OS2WinAOffset: 1
OS2WinDescent: 0
OS2WinDOffset: 1
HheadAscent: 0
HheadAOffset: 1
HheadDescent: 0
HheadDOffset: 1
OS2Vendor: 'PfEd'
OS2UnicodeRanges: 00000043.00000000.00000000.00000000
Lookup: 4 0 1 "multigraphs" { "multigraphs-1"  } ['liga' ('DFLT' <'dflt' > 'latn' <'dflt' > ) ]
Lookup: 6 8 0 "'calt' r to low stem r" { "'calt' r to low stem r-1"  } ['calt' ('DFLT' <'dflt' > 'latn' <'dflt' > ) ]
Lookup: 1 8 0 "r to low tail r" { "r to low tail r-1"  } []
Lookup: 1 8 0 "r to branch stem r" { "r to branch stem r-1"  } []
Lookup: 6 8 0 "'calt' r to branch stem r" { "'calt' Alternative contestuali in Latino lookup 4-1"  } ['calt' ('DFLT' <'dflt' > 'latn' <'dflt' > ) ]
Lookup: 1 8 0 "r to rising stem r" { "r to rising stem r-1"  } []
Lookup: 6 8 0 "'calt' r to rising stem r" { "'calt' Alternative contestuali in Latino lookup 6-1"  } ['calt' ('DFLT' <'dflt' > 'latn' <'dflt' > ) ]
Lookup: 1 12 0 "' to connecting '" { "' to connecting '-1"  } []
Lookup: 6 8 0 "calt ' to connecting '" { "calt ' to connecting '-1"  } ['calt' ('DFLT' <'dflt' > 'latn' <'dflt' > ) ]
Lookup: 1 12 0 "' to low connecting '" { "' to low connecting '-1"  } []
Lookup: 6 8 0 "'calt' ' to low connecting '" { "'calt' ' to low connecting '-1"  } ['calt' ('DFLT' <'dflt' > 'latn' <'dflt' > ) ]

StartChar: K
Encoding: 75 75 0
Width: 650
VWidth: 0
UnlinkRmOvrlpSave: 1
Flags: W
HStem: 258 21G<36 111.766> 474 25<440 500> 476 50<242.915 440 500 590.445> 514.057 20G<586.843 606.189> 514.057 20G<586.843 606.189>
VStem: 440 60<273.472 499>
AnchorPoint: "toneAnchor" 377 599 basechar 0
LayerCount: 2
Fore
SplineSet
470 499 m 1xc4
 500 499 l 1
 500 261.966796875 553.405273438 125.301757812 601.65625 58.9580078125 c 1
 576 46 l 1
 550.34375 33.04296875 l 1
 493.868164062 110.697265625 440 255.99609375 440 499 c 1
 470 499 l 1xc4
36 272.736328125 m 1
 22.5322265625 295.075195312 l 1
 121.879882812 336.668945312 147.172851562 526 292 526 c 0xa4
 405.662109375 526 425.663085938 524 538 524 c 0
 560.033203125 524 582.856445312 529.8046875 590.829101562 534.056640625 c 1
 607 513 l 1
 623.170898438 491.942382812 l 1
 601.143554688 480.1953125 570.00390625 474 538 474 c 0xd4
 424.336914062 474 404.337890625 476 292 476 c 0xa4
 200.793945312 476 176.532226562 310.603515625 47 258 c 1
 36 272.736328125 l 1
EndSplineSet
EndChar

StartChar: y
Encoding: 121 121 4
Width: 463
VWidth: 0
Flags: W
HStem: -25 50<167.568 315.006> 329 50<162.184 306.534> 598.6 50<188.519 332.47>
VStem: 35 61<100.899 259.79 323.108 461.733> 371 60<84.7453 262.514>
AnchorPoint: "toneAnchor" 250 724 basechar 0
LayerCount: 2
Fore
SplineSet
96 178.836914062 m 1
 100 98 156 25 235 25 c 0
 329.591796875 25 371 85.890625 371 179 c 0
 371 267.587890625 311.688476562 329 239 329 c 0
 178.415039062 329 130.390625 295.225585938 108.646484375 243.475585938 c 0
 101.125976562 225.577148438 96 205.728515625 96 185 c 1
 96 178.836914062 l 1
95.2080078125 323.108398438 m 1
 130.33984375 356.8671875 180.713867188 379 239 379 c 0
 358.311523438 379 431 282.412109375 431 179 c 0
 431 76.109375 376.822265625 -25 235 -25 c 0
 94 -25 35 107 35 209 c 2
 35 250.04296875 l 1
 35 307 l 2
 35 461.397460938 88.376953125 648.599609375 250 648.599609375 c 0
 336.063476562 648.599609375 376.760742188 616.791015625 407.375976562 576.334960938 c 1
 382 563 l 1
 356.624023438 549.6640625 l 1
 331.239257812 583.208984375 315.936523438 598.599609375 250 598.599609375 c 0
 161.229492188 598.599609375 99.3984375 478.626953125 95.2080078125 323.108398438 c 1
EndSplineSet
Validated: 1
EndChar

StartChar: w
Encoding: 119 119 5
Width: 463
VWidth: 0
UnlinkRmOvrlpSave: 1
Flags: W
HStem: -175.386 46.7705<132.432 155.613> -25 50<167.568 315.006> 329 50<162.184 306.534> 598.6 50<188.519 332.47>
VStem: 35 61<100.899 259.79 323.108 461.733> 207.054 59.8926<-35.1616 -1.49707> 371 60<84.7453 262.514>
AnchorPoint: "toneAnchor" 226 754 basechar 0
LayerCount: 2
Fore
SplineSet
239 -38 m 1
 267.9921875 -44.42578125 l 1
 245.03125 -116.364257812 188.755859375 -158.64453125 135.606445312 -175.385742188 c 1
 125 -152 l 1
 114.393554688 -128.615234375 l 1
 149.828125 -117.454101562 191.96875 -88.09375 210.0078125 -31.57421875 c 1
 239 -38 l 1
346 -182 m 1
 329.684570312 -202.979492188 l 1
 264.229492188 -167.630859375 214.825195312 -109.424804688 207.053710938 -1.4970703125 c 1
 237 0 l 1
 266.946289062 1.4970703125 l 1
 273.852539062 -94.4228515625 312.114257812 -133.909179688 362.315429688 -161.020507812 c 1
 346 -182 l 1
EndSplineSet
Refer: 4 121 N 1 0 0 1 0 0 2
EndChar

StartChar: t
Encoding: 116 116 6
Width: 650
VWidth: 0
UnlinkRmOvrlpSave: 1
Flags: W
HStem: 258 21G<36 111.766> 473 20G<472 532> 476 50<242.915 590.445> 514.057 20G<586.843 606.189 586.843 606.189>
VStem: 472 60<272.778 493>
LayerCount: 2
Fore
SplineSet
502 493 m 1xc8
 532 493 l 1
 532 232.84765625 487.20703125 83.9755859375 288.405273438 15.876953125 c 1
 277 39 l 1
 265.594726562 62.123046875 l 1
 428.79296875 118.025390625 472 232.96484375 472 493 c 1
 502 493 l 1xc8
EndSplineSet
Refer: 72 236 N 1 0 0 1 0 0 2
EndChar

StartChar: macron
Encoding: 175 175 8
Width: 1000
VWidth: 0
HStem: 808.995 70<-2 359.001>
LayerCount: 2
Fore
SplineSet
-2 878.995117188 m 5
 359.000976562 879 l 5
 359.004882812 809 l 5
 -2 808.995117188 l 5
 -2 878.995117188 l 5
EndSplineSet
Validated: 1
EndChar

StartChar: b
Encoding: 98 98 9
Width: 533
VWidth: 0
UnlinkRmOvrlpSave: 1
Flags: W
HStem: -25 50<139.894 397.327> 359 20<235.5 295.5> 540 22<235.5 295.5> 578 49.5898<408.325 467.631>
VStem: 16.5 60<83.7849 270.255> 235.5 60<359 562> 456.5 60<82.9305 272.783>
AnchorPoint: "toneAnchor" 264 674 basechar 0
LayerCount: 2
Fore
SplineSet
265.5 562 m 1
 295.5 562 l 1
 295.5 359 l 1
 265.5 359 l 1
 235.5 359 l 1
 235.5 562 l 1
 265.5 562 l 1
48.5 565 m 1
 49 595 l 5
 262 581 355 598 463.6484375 627.58984375 c 5
 476.5 605 l 1
 490 578 l 5
 391 550 366 540 56.5 540 c 6
 48.5 540 l 1
 48.5 565 l 1
48.5 565 m 1025
76.5 182 m 0
 76.5 43.4453125 153.12109375 25 266.5 25 c 0
 380.235351562 25 456.5 41.4853515625 456.5 182 c 0
 456.5 312.495117188 381.37890625 329 266.5 329 c 0
 152.725585938 329 76.5 306.651367188 76.5 182 c 0
16.5 182 m 0
 16.5 339.348632812 138.274414062 379 266.5 379 c 0
 393.62109375 379 516.5 345.504882812 516.5 182 c 0
 516.5 10.515625 394.764648438 -25 266.5 -25 c 0
 137.87890625 -25 16.5 12.5546875 16.5 182 c 0
EndSplineSet
EndChar

StartChar: currency
Encoding: 164 164 10
Width: 284
VWidth: 0
Flags: W
HStem: 95.1074 181.129
VStem: 158.948 58.1035<227.04 265.266>
LayerCount: 2
Fore
SplineSet
87 112 m 1
 64.8857421875 128.893554688 l 1
 104.704101562 165.091796875 143.31640625 225.661132812 158.948242188 276.236328125 c 1
 188 270 l 1
 217.051757812 263.763671875 l 1
 198.68359375 204.338867188 157.295898438 138.908203125 109.114257812 95.107421875 c 1
 87 112 l 1
EndSplineSet
Validated: 1
EndChar

StartChar: yen
Encoding: 165 165 11
Width: 299
VWidth: 0
Flags: W
HStem: 41.9521 252.521
VStem: 126.896 58.1035<245.276 283.503> 208 58.9824<152.612 214.918>
LayerCount: 2
Fore
SplineSet
158.491210938 58.4150390625 m 5
 135.9140625 74.8779296875 l 5
 172.49609375 109.717773438 193.384765625 157.717773438 208 223 c 5
 237.491210938 218.415039062 l 5
 266.982421875 213.830078125 l 5
 251.59765625 145.11328125 228.486328125 87.1123046875 181.068359375 41.9521484375 c 5
 158.491210938 58.4150390625 l 5
54.9482421875 130.236328125 m 1
 32.833984375 147.129882812 l 1
 72.65234375 183.328125 111.264648438 243.897460938 126.896484375 294.47265625 c 1
 155.948242188 288.236328125 l 1
 185 282 l 1
 166.631835938 222.575195312 125.244140625 157.14453125 77.0625 113.34375 c 1
 54.9482421875 130.236328125 l 1
EndSplineSet
EndChar

StartChar: d
Encoding: 100 100 12
Width: 650
VWidth: 0
UnlinkRmOvrlpSave: 1
Flags: W
HStem: 111 50<360.404 422.462> 258 21G<36 111.766> 476 50<242.915 590.445> 477 20G<275.016 341.374 478 538> 514.057 20G<586.843 606.189 586.843 606.189>
VStem: 275.016 59.5879<189.767 251.801> 478 60<277.306 497>
LayerCount: 2
Fore
SplineSet
508 497 m 1xd6
 538 497 l 1
 538 340.068359375 527.771484375 111 398 111 c 0
 364.69140625 111 337.291992188 124.426757812 319.286132812 143.3515625 c 1
 296.293945312 56.98828125 251.306640625 -12.2998046875 189.509765625 -52.673828125 c 1
 171 -33 l 1
 152.490234375 -13.3251953125 l 1
 217.154296875 28.921875 270.193359375 126.435546875 275.015625 251.80078125 c 1
 334.603515625 255.049804688 l 1
 348.143554688 186.307617188 368.302734375 161 398 161 c 0
 438.333984375 161 478 311.907226562 478 497 c 1
 508 497 l 1xd6
EndSplineSet
Refer: 72 236 N 1 0 0 1 0 0 2
EndChar

StartChar: brokenbar
Encoding: 166 166 13
Width: 421
VWidth: 0
Flags: W
HStem: 88 50<204.284 275.974>
VStem: 323.013 57.9746<201.608 244.114>
LayerCount: 2
Fore
SplineSet
23.10546875 88.189453125 m 1
 90 154 137.7421875 212.040039062 163.61328125 275.088867188 c 1
 220.953125 260.454101562 l 1
 209.844726562 226.3359375 202.2109375 192.001283403 202.2109375 174.666015625 c 3
 202.2109375 150.999059965 213 138 241 138 c 0
 268 138 298.010742188 177.309570312 323.012695312 255.44140625 c 1
 352 249 l 1
 380.987304688 242.55859375 l 1
 357.989257812 170.690429688 318.33203125 88 243 88 c 0
 195.91796875 88 160.788085938 106.17578125 147.903320312 139.587890625 c 1
 131.240234375 118.934570312 88.42578125 76.2392578125 70 57 c 1
 23.10546875 88.189453125 l 1
EndSplineSet
Validated: 1
EndChar

StartChar: Aacute
Encoding: 193 193 16
Width: 540
VWidth: 0
Flags: W
HStem: -113 50<33.1906 169.563>
VStem: 240 60<32.8662 316>
LayerCount: 2
Fore
SplineSet
17.3092549902 -31.0105343 m 1
 42.1195356628 -49.0309094803 72.0016853381 -63 105 -63 c 0
 190.194335938 -63 240 22 240 172 c 2
 240 316 l 5
 300 316 l 5
 300 172 l 2
 300 7.1834525438 239.842773438 -113 105 -113 c 0
 48.9668960472 -113 3.73640918464 -91.4553418069 -30.5212412871 -65.3132134483 c 1
 17.3092549902 -31.0105343 l 1
EndSplineSet
EndChar

StartChar: z
Encoding: 122 122 20
Width: 544
VWidth: 0
UnlinkRmOvrlpSave: 1
Flags: W
HStem: 171 50<102 412> 217.462 20G<407.973 436> 293 50<160.907 394.161> 611 50<164.671 389.112>
VStem: 49 60<391.451 558.699> 441 60<387.498 560.838>
AnchorPoint: "toneAnchor" 268 727 basechar 0
LayerCount: 2
Fore
SplineSet
436 222 m 1x7c
 459.57421875 206.5390625 l 1
 434.479492188 179.966796875 394.5078125 171 359 171 c 2
 102 171 l 1
 102 196 l 1
 102 221 l 1
 359 221 l 2xbc
 383.4921875 221 403.520507812 228.032226562 412.42578125 237.461914062 c 1
 436 222 l 1x7c
EndSplineSet
Refer: 15 192 N 1 0 0 1 0 0 2
EndChar

StartChar: Atilde
Encoding: 195 195 21
Width: 544
VWidth: 0
UnlinkRmOvrlpSave: 1
Flags: W
HStem: 35.0762 50<153.976 261.498> 194.076 50<151.245 296.078 353.502 419.546> 293 50<160.907 394.161> 611 50<164.671 389.112>
VStem: 49 60<391.451 558.699> 79.6094 60<99.1237 181.287> 296.078 60.2705<122.771 194.279> 441 60<387.498 560.838>
AnchorPoint: "toneAnchor" 278 732 basechar 0
LayerCount: 2
Fore
SplineSet
347.79296875 245.036132812 m 6xf7
 387.9140625 246.05078125 416.870117188 249.866210938 418.854492188 250.509765625 c 6
 458 212 l 5
 434.655273438 195.521484375 402.020507812 196.612304688 356.348632812 195.243164062 c 5
 347.651367188 96.6259765625 294.53125 35.076171875 208.609375 35.076171875 c 4
 135.03125 35.076171875 79.609375 75.6220703125 79.609375 147.076171875 c 4
 79.609375 201.372070312 137.55078125 244.076171875 197.609375 244.076171875 c 4
 239.37109375 244.076171875 275.665039062 244.077148438 306.412109375 244.366210938 c 6
 347.79296875 245.036132812 l 6xf7
296.078125 194.279296875 m 5
 267.294921875 194.081054688 234.080078125 194.076171875 197.609375 194.076171875 c 4
 169.66796875 194.076171875 139.609375 170.780273438 139.609375 147.076171875 c 4
 139.609375 106.076171875 167.609375 85.076171875 208.609375 85.076171875 c 4
 249.114257812 85.076171875 287.50390625 110.184570312 296.078125 194.279296875 c 5
EndSplineSet
Refer: 15 192 N 1 0 0 1 0 0 2
LCarets2: 1 0
Ligature2: "multigraphs-1" z period
EndChar

StartChar: Adieresis
Encoding: 196 196 22
Width: 463
VWidth: 0
Flags: W
HStem: -25 50<150.994 298.432> 329 50<159.466 303.816> 598.6 50<133.53 277.481>
VStem: 35 60<84.7453 262.514> 370 61<100.899 259.79 323.108 461.733>
LayerCount: 2
Fore
SplineSet
370 178.836914062 m 5
 370 185 l 5
 370 205.728515625 364.874023438 225.577148438 357.353515625 243.475585938 c 4
 335.609375 295.225585938 287.584960938 329 227 329 c 4
 154.311523438 329 95 267.587890625 95 179 c 4
 95 85.890625 136.408203125 25 231 25 c 4
 310 25 366 98 370 178.836914062 c 5
370.791992188 323.108398438 m 5
 366.6015625 478.626953125 304.770507812 598.599609375 216 598.599609375 c 4
 150.063476562 598.599609375 134.760742188 583.208984375 109.375976562 549.6640625 c 5
 84 563 l 5
 58.6240234375 576.334960938 l 5
 89.2392578125 616.791015625 129.936523438 648.599609375 216 648.599609375 c 4
 377.623046875 648.599609375 431 461.397460938 431 307 c 6
 431 250.04296875 l 5
 431 209 l 6
 431 107 372 -25 231 -25 c 4
 89.177734375 -25 35 76.109375 35 179 c 4
 35 282.412109375 107.688476562 379 227 379 c 4
 285.286132812 379 335.66015625 356.8671875 370.791992188 323.108398438 c 5
EndSplineSet
Validated: 1
EndChar

StartChar: quotesingle
Encoding: 39 39 23
Width: 343
VWidth: 0
UnlinkRmOvrlpSave: 1
Flags: W
HStem: 294.082 47.835<128.176 179.942>
VStem: 250 60<395.349 512.303>
AnchorPoint: "toneAnchor" 180 73 basechar 0
LayerCount: 2
Fore
SplineSet
174 617 m 1
 198.546875 631.373046875 l 1
 236.96484375 585.806640625 310 535.954101562 310 445 c 0
 310 346.307617188 200.3359375 311.728515625 130.731445312 294.08203125 c 1
 122 318 l 1
 113.268554688 341.916992188 l 1
 185.6640625 360.271484375 250 385.692382812 250 445 c 0
 250 512.044921875 197.03515625 546.193359375 149.453125 602.627929688 c 1
 174 617 l 1
230 706 m 1
 258.216796875 697.508789062 l 1
 217.18359375 602.817382812 153.530273438 539.448242188 50.1376953125 479.48046875 c 1
 33 500 l 1
 15.8623046875 520.51953125 l 1
 112.469726562 576.551757812 164.81640625 629.182617188 201.783203125 714.491210938 c 1
 230 706 l 1
EndSplineSet
Substitution2: "' to low connecting '-1" divide
Substitution2: "' to connecting '-1" eth
EndChar

StartChar: n
Encoding: 110 110 24
Width: 464
VWidth: 0
Flags: W
VStem: 366.69 59.0879<550.35 620.286>
AnchorPoint: "toneAnchor" 96 404 basechar 0
LayerCount: 2
Fore
SplineSet
396.234375 623.600585938 m 1
 425.778320312 619.256835938 l 1
 372.94921875 369.740234375 258.481445312 169.431640625 88.0126953125 -15.2431640625 c 1
 64.234375 0 l 1
 40.4560546875 15.2431640625 l 1
 205.987304688 194.568359375 315.51953125 386.259765625 366.690429688 627.944335938 c 1
 396.234375 623.600585938 l 1
EndSplineSet
EndChar

StartChar: r
Encoding: 114 114 26
Width: 544
VWidth: 0
UnlinkRmOvrlpSave: 1
Flags: W
HStem: 174 50<145.709 345.237> 336 50<160.907 394.161> 654 50<164.671 389.112>
VStem: 44 60<261.843 375.005> 49 60<434.451 601.699> 366 60<245.534 278> 441 60<430.498 603.838>
AnchorPoint: "toneAnchor" 274 763 basechar 0
LayerCount: 2
Fore
SplineSet
124 424 m 1xf6
 150.78515625 412.741210938 l 1
 124.672851562 369.59765625 104 355.446289062 104 314 c 0
 104 256.012695312 162.020507812 224 244 224 c 0
 323.541992188 224 366 247.8125 366 278 c 1
 396 278 l 1
 426 278 l 1
 426 199.892578125 326.458007812 174 244 174 c 0
 145.967773438 174 44 217.975585938 44 314 c 0
 44 372.553710938 77.3271484375 402.40234375 97.21484375 435.258789062 c 1
 124 424 l 1xf6
EndSplineSet
Refer: 56 216 N 1 0 0 1 0 0 2
Substitution2: "r to low tail r-1" Ccedilla
Substitution2: "r to branch stem r-1" mu
Substitution2: "r to rising stem r-1" ordmasculine
EndChar

StartChar: h
Encoding: 104 104 27
Width: 544
VWidth: 0
UnlinkRmOvrlpSave: 1
Flags: W
HStem: -0.800781 47.6016<135.329 171.161 364.802 422.454> 293 50<160.907 394.161> 611 50<164.671 389.112>
VStem: 49 60<391.451 558.699> 237 60<177.412 315> 441 60<387.498 560.838>
AnchorPoint: "toneAnchor" 272 728 basechar 0
LayerCount: 2
Fore
SplineSet
270 174 m 1
 299.919921875 172.169921875 l 1
 290.106445312 60.765625 199.19921875 15.8115234375 137.180664062 -0.80078125 c 1
 128 23 l 1
 118.819335938 46.80078125 l 1
 168.80078125 60.1884765625 232.534179688 90.16015625 240.080078125 175.830078125 c 1
 270 174 l 1
429 21 m 1
 420.606445312 -3.0009765625 l 1
 347.151367188 14.8369140625 237 46.6708984375 237 222 c 2
 237 315 l 1
 267 315 l 1
 297 315 l 1
 297 222 l 2
 297 71.328125 370.848632812 61.162109375 437.393554688 45.001953125 c 1
 429 21 l 1
EndSplineSet
Refer: 15 192 N 1 0 0 1 0 0 2
EndChar

StartChar: period
Encoding: 46 46 29
Width: 190
VWidth: 0
Flags: W
HStem: -206 104<45.7098 140.29>
VStem: 35 116<-194.217 -113.783>
LayerCount: 2
Fore
SplineSet
35 -154 m 0
 35 -125 61 -102 93 -102 c 0
 125 -102 151 -125 151 -154 c 0
 151 -183 125 -206 93 -206 c 0
 61 -206 35 -183 35 -154 c 0
EndSplineSet
Validated: 1
EndChar

StartChar: D
Encoding: 68 68 34
Width: 0
VWidth: 0
Flags: W
HStem: 683.8 49.999<180.642 285.917>
VStem: 112 60<740.325 797> 298 60<746.853 798>
LayerCount: 2
Fore
SplineSet
142 797 m 5
 172 797 l 5
 172 736.017578125 194.547851562 733.624023438 233.83984375 733.798828125 c 4
 265.004882812 733.9375 298 746.274414062 298 798 c 5
 328 798 l 5
 358 798 l 5
 358 718.97265625 292.995117188 684.061523438 234.16015625 683.799804688 c 4
 171.452148438 683.520507812 112 711.107421875 112 797 c 5
 142 797 l 5
EndSplineSet
Refer: 49 32 S 1 0 0 1 138.719 169.395 2
Refer: 49 32 S 1 0 0 1 138.719 169.395 2
EndChar

StartChar: F
Encoding: 70 70 35
Width: 0
VWidth: 0
Flags: W
HStem: 664.042 47.916<169.118 232.934>
LayerCount: 2
Fore
SplineSet
239 688 m 5
 230.4296875 664.041992188 l 5
 161.502929688 681.165039062 107.920898438 688.936523438 30.7451171875 777.287109375 c 5
 55 792 l 5
 79.2548828125 806.712890625 l 5
 149.483398438 726.314453125 174.329101562 730.153320312 247.5703125 711.958007812 c 5
 239 688 l 5
EndSplineSet
Refer: 49 32 N 1 0 0 1 48.7188 169.395 2
Refer: 49 32 N 1 0 0 1 48.7188 169.395 2
EndChar

StartChar: P
Encoding: 80 80 36
Width: 0
VWidth: 0
Flags: W
HStem: 748.001 49.999<184.083 289.358>
VStem: 112 60<683.8 734.946> 298 60<684.8 741.474>
LayerCount: 2
Fore
SplineSet
328 684.799804688 m 5
 298 684.799804688 l 5
 298 745.782226562 275.452148438 748.17578125 236.16015625 748.000976562 c 4
 204.995117188 747.862304688 172 735.525390625 172 683.799804688 c 5
 142 683.799804688 l 5
 112 683.799804688 l 5
 112 762.827148438 177.004882812 797.73828125 235.83984375 798 c 4
 298.547851562 798.279296875 358 770.692382812 358 684.799804688 c 5
 328 684.799804688 l 5
EndSplineSet
Refer: 49 32 N 1 0 0 1 138.719 169.395 2
Refer: 49 32 N 1 0 0 1 138.719 169.395 2
EndChar

StartChar: R
Encoding: 82 82 37
Width: 0
VWidth: 0
Flags: W
HStem: 664.042 47.916<45.3817 109.197>
VStem: 30.7451 216.825
LayerCount: 2
Fore
SplineSet
39.3154296875 688 m 5
 30.7451171875 711.958007812 l 5
 103.986328125 730.153320312 128.83203125 726.314453125 199.060546875 806.712890625 c 5
 223.315429688 792 l 5
 247.5703125 777.287109375 l 5
 170.39453125 688.936523438 116.8125 681.165039062 47.8857421875 664.041992188 c 5
 39.3154296875 688 l 5
EndSplineSet
Refer: 49 32 N 1 0 0 1 48.7188 169.395 2
Refer: 49 32 N 1 0 0 1 48.7188 169.395 2
EndChar

StartChar: H
Encoding: 72 72 39
Width: 0
VWidth: 0
Flags: W
HStem: 683.8 49.999<180.642 285.917> 777 76<202.315 263.685>
VStem: 112 60<740.325 797> 199 68<779.634 850.366> 298 60<746.853 798>
LayerCount: 2
Fore
SplineSet
199 815 m 4
 199 836 214 853 233 853 c 4
 252 853 267 836 267 815 c 4
 267 794 252 777 233 777 c 4
 214 777 199 794 199 815 c 4
EndSplineSet
Refer: 34 68 N 1 0 0 1 0 0 2
EndChar

StartChar: L
Encoding: 76 76 40
Width: 0
VWidth: 0
Flags: W
HStem: 682 62<191.905 272.095>
VStem: 190 84<686.133 739.867>
LayerCount: 2
Fore
SplineSet
190 713 m 0
 190 730 209 744 232 744 c 0
 255 744 274 730 274 713 c 0
 274 696 255 682 232 682 c 0
 209 682 190 696 190 713 c 0
EndSplineSet
EndChar

StartChar: ntilde
Encoding: 241 241 42
Width: 464
VWidth: 0
UnlinkRmOvrlpSave: 1
Flags: W
HStem: -95 49.999<352.556 429.397>
VStem: 282 60<-36.7721 57.0768> 366.69 59.0879<550.35 620.286> 455 60<-18.8139 152.891>
AnchorPoint: "toneAnchor" 179 495 basechar 0
LayerCount: 2
Fore
SplineSet
437.958007812 255.297851562 m 0
 447.814453125 242.750976562 457.170898438 229.7265625 465.41015625 216.850585938 c 0
 495.411132812 169.967773438 515 119.516601562 515 68 c 0
 515 -13.1416015625 473.764648438 -95 376 -95 c 0
 319.602539062 -95 282 -38.9501953125 282 10 c 0
 282 96.9658203125 385.515625 152.27734375 389.256835938 204.665039062 c 0
 389.853878099 213.020768093 388.621049812 226.971042592 382.442382812 234.5390625 c 0
 354.860351562 268.33984375 321.381835938 300.46875 286.083007812 329.079101562 c 1
 327.916992188 364.921875 l 1
 363.015625 336.473632812 396.615234375 304.678710938 425.517578125 270.5234375 c 0
 437.958007812 255.297851562 l 0
434.336914062 153.659179688 m 1
 400.646484375 90.7431640625 342 49.751953125 342 10 c 0
 342 -22.36328125 366 -45.0009765625 382 -45.0009765625 c 0
 426.298828125 -45.0009765625 455 -7.0771484375 455 68 c 0
 455 95.865234375 447.6015625 124.76953125 434.336914062 153.659179688 c 1
EndSplineSet
Refer: 24 110 N 1 0 0 1 0 0 2
LCarets2: 1 0
Ligature2: "multigraphs-1" n j
EndChar

StartChar: j
Encoding: 106 106 43
Width: 1000
VWidth: 0
HStem: 251 152<406.233 505.767>
VStem: 384 144<273.25 380.75>
LayerCount: 2
Fore
SplineSet
384 327 m 4
 384 369 416 403 456 403 c 4
 496 403 528 369 528 327 c 4
 528 285 496 251 456 251 c 4
 416 251 384 285 384 327 c 4
EndSplineSet
Validated: 1
EndChar

StartChar: exclam
Encoding: 33 33 44
Width: 208
VWidth: 0
Flags: W
HStem: -5 96<55.123 142.877>
VStem: 46 106<4.68573 81.3143> 57 84<327.111 800> 65 67<192 664.889>
LayerCount: 2
Fore
SplineSet
46 43 m 0xc0
 46 69 70 91 99 91 c 0
 128 91 152 69 152 43 c 0
 152 17 128 -5 99 -5 c 0
 70 -5 46 17 46 43 c 0xc0
57 800 m 1xa0
 141 800 l 5xa0
 132 192 l 1
 65 192 l 1x90
 57 800 l 1xa0
EndSplineSet
Validated: 1
EndChar

StartChar: Aring
Encoding: 197 197 45
Width: 540
VWidth: 0
Flags: W
HStem: -122 50<131.421 197.534>
VStem: 61 60<-64.1864 20.6406> 240 60<157.776 330>
LayerCount: 2
Fore
SplineSet
240 190.166992188 m 1
 240 330 l 5
 300 330 l 5
 300 85 l 2
 300 81.7316269633 300 -122 167 -122 c 0
 83.4208984375 -122 61 -63.537109375 61 -17 c 0
 61 77.5146484375 200.212890625 116.19140625 229.217773438 157.313476562 c 0
 236.16796875 167.166992188 240 177.251953125 240 190 c 1
 240 190.166992188 l 1
239 95 m 1
 181 44 121 24.1767578125 121 -17 c 0
 121 -45 139.067382812 -72 167 -72 c 0
 211 -72 234.346679688 27.505859375 239 95 c 1
EndSplineSet
EndChar

StartChar: N
Encoding: 78 78 46
Width: 650
VWidth: 0
UnlinkRmOvrlpSave: 1
Flags: W
HStem: 3 50<189.393 284.003 359.393 530.393> 258 21G<36 111.766> 476 50<242.915 590.445> 499 20G<317.87 367.393> 514.057 20G<586.843 606.189 586.843 606.189>
VStem: 422.393 60<178.178 356.762>
AnchorPoint: "toneAnchor" 364 614 basechar 0
LayerCount: 2
Fore
SplineSet
316.353515625 495.44140625 m 1xd4
 326.392578125 519 l 1
 408.392578125 452 482.392578125 384.5703125 482.392578125 270 c 0
 482.392578125 162 437.392578125 80 359.392578125 53 c 1
 530.392578125 53 l 1
 530.392578125 28 l 1
 530.392578125 3 l 1
 189.392578125 3 l 1
 187 52.919921875 l 1
 329.750976562 62.4365234375 422.392578125 153.768554688 422.392578125 270 c 0
 422.392578125 358.831054688 364.078125 410.1171875 300 479 c 1
 316.353515625 495.44140625 l 1xd4
EndSplineSet
Refer: 72 236 N 1 0 0 1 0 0 2
EndChar

StartChar: Edieresis
Encoding: 203 203 47
Width: 706
VWidth: 0
UnlinkRmOvrlpSave: 1
Flags: W
HStem: 232 20G<514 570> 258 21G<36 111.766> 473 20G<472 532> 476 50<242.915 590.445> 514.057 20G<586.843 606.189 586.843 606.189>
VStem: 472 60<272.778 493> 522 59<100.04 233.978>
AnchorPoint: "toneAnchor" 527 453 basechar 0
LayerCount: 2
Fore
SplineSet
549.541015625 73.03125 m 1xc2
 592.237304688 78.05078125 634.561523438 72.33203125 672.350585938 47.6875 c 1
 653.861328125 28 l 1
 652.001953125 26.01953125 l 1
 635.372070312 8.3125 l 1
 598.967773438 32.0546875 548.75390625 27.9892578125 501.919921875 8.18359375 c 0
 484.134765625 0.662109375 467.8203125 -8.8544921875 455 -18.5302734375 c 0
 454.328125 -17.912109375 413.981445312 17.970703125 414.72265625 18.5302734375 c 0
 429.919921875 30 446.221542609 41.8867443271 460.181640625 55.927734375 c 0
 504 100 522 121.67578125 522 165 c 0
 522 218 514.197265625 233.784179688 514 234 c 0
 570 252 l 1
 570 252 582 230 581 168 c 0
 580.419921875 132.055664062 568.430664062 100.61328125 549.541015625 73.03125 c 1xc2
EndSplineSet
Refer: 6 116 N 1 0 0 1 0 0 2
LCarets2: 1 0
EndChar

StartChar: Iacute
Encoding: 205 205 51
Width: 770
VWidth: 0
UnlinkRmOvrlpSave: 1
Flags: W
HStem: 308 50<481.763 630.237> 324 55.0947<274.672 406.171> 566 50<481.763 630.237> 614 20G<237 290.469>
VStem: 255 71<553.812 624.467> 373 60<411.517 519.206> 679 60<404.794 519.206>
LayerCount: 2
Fore
SplineSet
433 462 m 0xae
 433 404.6171875 488.897460938 358 556 358 c 0
 623.100585938 358 679 404.6171875 679 462 c 0
 679 519.3828125 623.102539062 566 556 566 c 0
 488.899414062 566 433 519.3828125 433 462 c 0xae
373 462 m 0
 373 546.6171875 455.100585938 616 556 616 c 0
 656.897460938 616 739 546.6171875 739 462 c 0
 739 377.3828125 656.899414062 308 556 308 c 0
 455.102539062 308 373 377.381835938 373 462 c 0
25.0810546875 289.694335938 m 1
 192 413.199542046 219 458 255 634 c 5x1e
 290.46875 628 l 1
 326 623.599609375 l 5
 278 436 215 351 65 246 c 5
 25.0810546875 289.694335938 l 1
219.005859375 428.01171875 m 1
 247 437 l 1
 270.118452285 387 313.014648438 379.094726562 346 379.094726562 c 0
 369.260742188 379.094726562 391.470703125 393.52734375 420.11328125 416.799804688 c 1
 462 381 l 1
 426.642578125 352.272460938 385.436523438 324 343 324 c 0x4e
 285.985351562 324 240 336 202 420 c 1
 219.005859375 428.01171875 l 1
EndSplineSet
EndChar

StartChar: Icircumflex
Encoding: 206 206 52
Width: 719
VWidth: 0
Flags: W
HStem: 39 50<278.289 423.823>
VStem: 503 60<177.271 351>
LayerCount: 2
Fore
SplineSet
197 165 m 5
 224.256835938 175.443359375 l 5
 254.967773438 119.78125 293.750976562 89 338 89 c 4
 456.911132812 89 503 167.643554688 503 309 c 6
 503 351 l 5
 533 351 l 5
 563 351 l 5
 563 309 l 6
 563 164.348632812 509.088867188 39 338 39 c 4
 256.249023438 39 203.032226562 94.2197265625 169.743164062 154.556640625 c 5
 197 165 l 5
EndSplineSet
Validated: 1
EndChar

StartChar: Oslash
Encoding: 216 216 56
Width: 544
VWidth: 0
UnlinkRmOvrlpSave: 1
Flags: W
HStem: 336 50<160.907 394.161> 654 50<164.671 389.112>
VStem: 49 60<434.451 601.699> 441 60<430.498 603.838>
LayerCount: 2
Fore
SplineSet
109 520 m 0
 109 404.66015625 174.920898438 386 275 386 c 0
 376.302734375 386 441 398.84375 441 520 c 0
 441 631.4609375 374.279296875 654 275 654 c 0
 176.703125 654 109 626.614257812 109 520 c 0
49 520 m 0
 49 657.38671875 157.296875 704 275 704 c 0
 391.720703125 704 501 662.540039062 501 520 c 0
 501 367.15625 389.697265625 336 275 336 c 0
 159.079101562 336 49 373.33984375 49 520 c 0
EndSplineSet
EndChar

StartChar: agrave
Encoding: 224 224 58
Width: 544
VWidth: 0
UnlinkRmOvrlpSave: 1
Flags: W
HStem: 205 50<-245 -47.5793> 351.754 46.9531<192.579 218.705> 614 50<117.359 193> 614.163 49.6738<197.459 280.324>
VStem: 51 54<378.562 524> 326 60<100.634 250.711> 348 60<422.317 559.317>
LayerCount: 2
Fore
SplineSet
76 521 m 1xe8
 51 520 l 5
 54 602 75.9921875 663.63671875 199 664 c 1
 195 641 l 1
 193 614 l 1
 110.37890625 613.756835938 107 598 104 519 c 1
 76 521 l 1xe8
EndSplineSet
Refer: 67 250 N 1 0 0 1 0 0 2
Refer: 59 223 N 1 0 0 1 103 0 2
EndChar

StartChar: germandbls
Encoding: 223 223 59
Width: 337
VWidth: 0
Flags: W
HStem: 351.754 46.9531<89.5791 115.705> 614.163 49.6738<94.4589 177.324>
VStem: 223 60<100.634 250.711> 245 60<422.317 559.317>
AnchorPoint: "toneAnchor" 153 737 basechar 0
LayerCount: 2
Fore
SplineSet
92 639 m 1xd0
 95.423828125 663.836914062 l 1
 201.051757812 653.723632812 305 605.284179688 305 496 c 0xd0
 305 407.735351562 256.09375 360.918945312 185.185546875 348.6953125 c 1
 249.587890625 301.887695312 283 239.920898438 283 158 c 0
 283 31.994140625 139.275390625 10.9873046875 83.328125 -53.6279296875 c 1
 59 -39 l 1
 34.671875 -24.37109375 l 1
 120.724609375 75.0126953125 223 66.005859375 223 158 c 0xe0
 223 254.387695312 174.516601562 307.657226562 71.3125 351.75390625 c 1
 89.5791015625 398.70703125 l 1
 176.5703125 387.510742188 229.994140625 396.583984375 242.454101562 465.162109375 c 0
 244.08984375 474.165039062 245 484.419921875 245 496 c 0
 245 570.715820312 180.948242188 605.319335938 88.576171875 614.163085938 c 1
 92 639 l 1xd0
EndSplineSet
EndChar

StartChar: aacute
Encoding: 225 225 60
Width: 567
VWidth: 0
UnlinkRmOvrlpSave: 1
Flags: W
HStem: 351.754 46.9531<223.579 249.705> 379 50<-46.2989 28.9296> 614.163 49.6738<228.459 311.324> 615.343 49.3145<118.766 223.049>
VStem: 54 51<551 604.316> 54 52<455.044 551> 357 60<100.634 250.711> 379 60<422.317 559.317>
LayerCount: 2
Fore
SplineSet
78 549 m 1x18
 54 551 l 0
 57 637 115.50390625 681.036132812 232.951171875 664.657226562 c 1
 228 640 l 1
 223.048828125 615.342773438 l 1
 123.96484375 629.161132812 109 599 105 548 c 13
 78 549 l 1x18
EndSplineSet
Refer: 68 251 N 1 0 0 1 0 0 2
Refer: 59 223 N 1 0 0 1 134 0 2
EndChar

StartChar: acircumflex
Encoding: 226 226 61
Width: 544
VWidth: 0
UnlinkRmOvrlpSave: 1
Flags: W
HStem: 225.322 301.678 351.754 46.9531<210.579 236.705> 614.163 49.6738<215.459 298.324> 615.206 49.5879<120.896 212.152>
VStem: 50.0029 59.9941<525.358 607.344> 52 57<393.687 527> 344 60<100.634 250.711> 366 60<422.317 559.317>
LayerCount: 2
Fore
SplineSet
80 525 m 1x18
 50.0029296875 525.358398438 l 1
 50.2783203125 541.366210938 51.2685546875 555.92578125 53.3193359375 569.296875 c 0
 65.021484375 645.576171875 121.46484375 675.395507812 219.84765625 664.793945312 c 1
 216 640 l 1
 212.15234375 615.206054688 l 1
 133.138671875 623.721679688 120.616210938 613.680664062 112.834960938 562.956054688 c 0
 111.174804688 552.135742188 110.25 539.342773438 109.997070312 524.641601562 c 1
 80 525 l 1x18
EndSplineSet
Refer: 69 252 N 1 0 0 1 0 0 2
Refer: 59 223 N 1 0 0 1 121 0 2
EndChar

StartChar: Uacute
Encoding: 218 218 64
Width: 622
VWidth: 0
UnlinkRmOvrlpSave: 1
Flags: W
HStem: 200.5 49<412.265 469.032>
VStem: 523 60<-67 415>
LayerCount: 2
Fore
SplineSet
553 415 m 5
 583 415 l 5
 583 -67 l 5
 553 -67 l 5
 523 -67 l 5
 523 415 l 5
 553 415 l 5
408 225 m 5
 402.029296875 249.5 l 5
 459.87890625 259.290039062 502.822265625 283.653320312 526.6953125 327.357421875 c 5
 554 317 l 5
 581.3046875 306.642578125 l 5
 548.53515625 246.653320312 486.12109375 212.709960938 413.970703125 200.5 c 5
 408 225 l 5
EndSplineSet
EndChar

StartChar: AE
Encoding: 198 198 66
Width: 544
VWidth: 0
Flags: W
VStem: 375 60<-84.6302 76.5391>
LayerCount: 2
Fore
SplineSet
278 170 m 1
 293.080078125 191.612304688 l 1
 396.540039062 141.481445312 435 85 435 -21 c 0
 435 -152 280 -186 236 -316 c 1
 168 -288 l 5
 256 -124 375 -146 375 0 c 0
 375 66 339 115 262.919921875 148.387695312 c 1
 278 170 l 1
EndSplineSet
EndChar

StartChar: uacute
Encoding: 250 250 67
Width: 544
VWidth: 0
Flags: W
HStem: 205 50<-245 -47.5793>
VStem: 51 54<378.562 524>
LayerCount: 2
Fore
SplineSet
80 551 m 1
 105 534 l 1
 105 417.171875 78 205 -119 205 c 2
 -245 205 l 1
 -245 255 l 1
 -131 255 l 2
 10 255 51 381.721679688 51 524 c 1
 80 551 l 1
EndSplineSet
EndChar

StartChar: ucircumflex
Encoding: 251 251 68
Width: 567
VWidth: 0
Flags: W
HStem: 379 50<-46.2989 28.9296>
VStem: 54 52<455.044 551>
LayerCount: 2
Fore
SplineSet
106 551 m 1
 106 488.3984375 80.0947265625 379 -4 379 c 3
 -66.0322265625 379 -92.046875 426.147460938 -112.473632812 464.958007812 c 1
 -85 475 l 1
 -69 484 l 1
 -47 448 -32.26953125 429 -4 429 c 0
 28.419921875 429 54 477.600585938 54 551 c 1
 106 551 l 1
EndSplineSet
EndChar

StartChar: udieresis
Encoding: 252 252 69
Width: 544
VWidth: 0
Flags: W
HStem: 225.322 301.678
VStem: 52 57<393.687 527>
LayerCount: 2
Fore
SplineSet
82 527 m 1
 109 528 l 1
 109 374 62.4228515625 317.99609375 -48.787109375 225.322265625 c 1
 -70 243 l 1
 -91.212890625 260.677734375 l 1
 13.5771484375 348.002929688 52 380.021484375 52 527 c 1
 82 527 l 1
EndSplineSet
EndChar

StartChar: Ucircumflex
Encoding: 219 219 70
Width: 770
VWidth: 0
Flags: W
HStem: 9 50<354.552 443.767>
VStem: 288 60<65.8814 141.825> 502 60<271.272 353.421>
LayerCount: 2
Fore
SplineSet
502.0078125 353.420898438 m 5
 561.9921875 354.578125 l 5
 563.01171875 317.880859375 562 297.475585938 562 262 c 4
 562 257.8046875 561.9453125 253.616210938 561.8359375 249.439453125 c 4
 558.924804688 138.094726562 516.006835938 9 392 9 c 4
 331.91015625 9 288 47.517578125 288 113 c 4
 288 216.877929688 469.874023438 244.395507812 494.720703125 271.014648438 c 4
 499.864257812 276.525390625 502 281.171875 502 288 c 4
 502.0078125 353.420898438 l 5
498.814453125 209.986328125 m 5
 421.49609375 171.15625 348 150.7265625 348 105 c 7
 348 68.9861137893 377 59 392 59 c 7
 443.446289062 59 486.543945312 114.490234375 498.814453125 209.986328125 c 5
EndSplineSet
EndChar

StartChar: igrave
Encoding: 236 236 72
Width: 650
VWidth: 0
Flags: W
HStem: 258 21G<36 111.766> 476 50<242.915 590.445> 514.057 20G<586.843 606.189> 514.057 20G<586.843 606.189>
LayerCount: 2
Fore
SplineSet
36 272.736328125 m 1xc0
 22.5322265625 295.075195312 l 1
 121.879882812 336.668945312 147.172851562 526 292 526 c 0xc0
 405.662109375 526 425.663085938 524 538 524 c 0
 560.033203125 524 582.856445312 529.8046875 590.829101562 534.056640625 c 1xa0
 607 513 l 1
 623.170898438 491.942382812 l 1
 601.143554688 480.1953125 570.00390625 474 538 474 c 0
 424.336914062 474 404.337890625 476 292 476 c 0
 200.793945312 476 176.532226562 310.603515625 47 258 c 1
 36 272.736328125 l 1xc0
EndSplineSet
EndChar

StartChar: Q
Encoding: 81 81 73
Width: 650
VWidth: 0
UnlinkRmOvrlpSave: 1
Flags: W
HStem: -158.964 47.9287<217.049 266.438> 130 10<365 425> 258 21G<36 111.766> 376 120<371 431> 410 16<372 432> 476 50<242.915 590.445> 514.057 20G<586.843 606.189 586.843 606.189>
VStem: 217 60<205.803 353.137> 365 60<50.626 140 411.606 496> 372 60<410 494.394> 509 60<201.173 356.094>
AnchorPoint: "toneAnchor" 360 601 basechar 0
LayerCount: 2
Fore
SplineSet
277 278 m 4xf120
 277 191.864257812 320.877929688 180 393 180 c 4
 467.568359375 180 509 183.25 509 278 c 4
 509 375.618164062 468.41015625 376 393 376 c 4
 319.532226562 376 277 368.920898438 277 278 c 4xf120
217 278 m 4
 217 399.079101562 304.467773438 426 393 426 c 4xe920
 479.58984375 426 569 406.381835938 569 278 c 4
 569 152.750976562 480.431640625 130 393 130 c 4
 303.122070312 130 217 162.13671875 217 278 c 4
389 23 m 1
 398.161132812 46.8056640625 l 1
 412.188476562 43.056640625 425.0625 38.25390625 436.68359375 32.4111328125 c 0
 542.783203125 -20.92578125 517.96484375 -137.147460938 449.647460938 -230.969726562 c 1
 424 -218 l 1
 398.352539062 -205.03125 l 1
 464.493164062 -114.197265625 463.248046875 -39.3359375 405.69140625 -10.4013671875 c 0
 398.395507812 -6.734375 389.850585938 -3.4814453125 379.838867188 -0.8056640625 c 1
 389 23 l 1
211 -135 m 1
 202.455078125 -111.03515625 l 1
 297.400390625 -87.525390625 365 -61.919921875 365 140 c 1
 395 140 l 1
 425 140 l 1xe1a0
 425 -76.314453125 334.599609375 -130.474609375 219.544921875 -158.963867188 c 1
 211 -135 l 1
401 496 m 1xf160
 431 496 l 1xf160
 431 462.512695312 432 444.512695312 432 410 c 1
 402 410 l 1
 372 410 l 1xe960
 372 443.487304688 371 461.487304688 371 496 c 1
 401 496 l 1xf160
EndSplineSet
Refer: 72 236 N 1 0 0 1 0 0 2
EndChar

StartChar: acutecomb
Encoding: 769 769 75
Width: 0
VWidth: 0
Flags: W
HStem: 664.042 47.916<45.3817 109.197>
VStem: 30.7451 216.825
AnchorPoint: "toneAnchor" 142 699 mark 0
LayerCount: 2
Fore
SplineSet
39.3154296875 688 m 1
 30.7451171875 711.958007812 l 1
 103.986328125 730.153320312 128.83203125 726.314453125 199.060546875 806.712890625 c 1
 223.315429688 792 l 1
 247.5703125 777.287109375 l 1
 170.39453125 688.936523438 116.8125 681.165039062 47.8857421875 664.041992188 c 1
 39.3154296875 688 l 1
EndSplineSet
Refer: 49 32 N 1 0 0 1 48.7188 169.395 2
Refer: 49 32 N 1 0 0 1 48.7188 169.395 2
EndChar

StartChar: uni030F
Encoding: 783 783 76
Width: 0
VWidth: 0
HStem: 732 50<80.6602 117.352> 749 50<-39.7691 3.8102>
VStem: 12.0293 59.2998<686.904 728.649>
AnchorPoint: "toneAnchor" 29 702 mark 0
LayerCount: 2
Fore
SplineSet
-141 815 m 1x60
 -125.334960938 836.321289062 l 1
 -97.5751953125 822.158203125 -82.0419921875 800.173828125 -72.4130859375 779.119140625 c 1
 -57.4677734375 792.237304688 -38.1005859375 799 -16 799 c 0x60
 15.84375 799 38.1865234375 782.418945312 50.4853515625 764.870117188 c 1
 63.4560546875 775.350585938 80.1201171875 782 100 782 c 0
 163.994140625 782 179.576171875 720.2734375 186.369140625 693.098632812 c 1
 157 688 l 1
 127.630859375 682.900390625 l 1
 118.423828125 719.7265625 104.005859375 732 100 732 c 0xa0
 92.8623046875 732 80.62890625 718.780273438 71.3291015625 682.743164062 c 1
 12.029296875 686.904296875 l 1
 9.7802734375 729.623046875 -5.2890625 749 -16 749 c 0
 -29.7294921875 749 -37.2041015625 741.345703125 -53.9677734375 687.69921875 c 1
 -112.763671875 690.868164062 l 1
 -118.401367188 728.077148438 -125.5390625 777.797851562 -156.665039062 793.678710938 c 1
 -141 815 l 1x60
EndSplineSet
EndChar

StartChar: gravecomb
Encoding: 768 768 77
Width: 0
VWidth: 0
Flags: W
HStem: 664.042 47.916<-210.882 -147.066>
VStem: -349.255 216.825
AnchorPoint: "toneAnchor" -230 697 mark 0
LayerCount: 2
Fore
SplineSet
-141 688 m 1
 -149.5703125 664.041992188 l 1
 -218.497070312 681.165039062 -272.079101562 688.936523438 -349.254882812 777.287109375 c 1
 -325 792 l 1
 -300.745117188 806.712890625 l 1
 -230.516601562 726.314453125 -205.670898438 730.153320312 -132.4296875 711.958007812 c 1
 -141 688 l 1
EndSplineSet
Refer: 49 32 N 1 0 0 1 -331.281 169.395 2
Refer: 49 32 N 1 0 0 1 -331.281 169.395 2
EndChar

StartChar: uni0304
Encoding: 772 772 78
Width: 0
VWidth: 0
Flags: W
HStem: 681.996 50.0078<-64.9749 65.2101> 796 76<-30.6852 30.6852>
VStem: -34 68<798.634 869.366> 102.94 58.1191<768.838 795.287>
AnchorPoint: "toneAnchor" 0 709.6 mark 0
LayerCount: 2
Fore
SplineSet
-34 834 m 4
 -34 855 -19 872 0 872 c 4
 19 872 34 855 34 834 c 4
 34 813 19 796 0 796 c 4
 -19 796 -34 813 -34 834 c 4
EndSplineSet
Refer: 79 780 N 1 0 0 1 0 0 2
EndChar

StartChar: uni030C
Encoding: 780 780 79
Width: 0
VWidth: 0
Flags: W
HStem: 681.996 50.0078<-64.9749 65.2101>
VStem: 102.94 58.1191<768.838 795.287>
AnchorPoint: "toneAnchor" 0 710 mark 0
LayerCount: 2
Fore
SplineSet
132 800 m 1
 161.059570312 793.791015625 l 1
 142.318359375 732.87890625 80.7990872582 682.696208014 -2.9892578125 681.99609375 c 0
 -91.5791015625 681.255859375 -137.638671875 739.075195312 -162.13671875 793.173828125 c 5
 -134.068359375 802 l 5
 -106 810.827148438 l 5
 -82.578125 759.103515625 -51.989265386 732.724094389 -3 732.00390625 c 0
 49.279296875 731.235351562 89.5703125 762.755859375 102.940429688 806.208984375 c 1
 132 800 l 1
EndSplineSet
Refer: 49 32 N 1 0 0 1 138.719 169.395 2
Refer: 49 32 N 1 0 0 1 138.719 169.395 2
EndChar

StartChar: uni0307
Encoding: 775 775 80
Width: 0
VWidth: 0
Flags: W
HStem: 682 62<191.905 272.095>
VStem: 190 84<686.133 739.867>
AnchorPoint: "toneAnchor" 232 700 mark 0
LayerCount: 2
Fore
SplineSet
190 713 m 0
 190 730 209 744 232 744 c 0
 255 744 274 730 274 713 c 0
 274 696 255 682 232 682 c 0
 209 682 190 696 190 713 c 0
EndSplineSet
EndChar

StartChar: uni0302
Encoding: 770 770 81
Width: 0
VWidth: 0
Flags: W
HStem: 748.001 49.999<184.083 289.358>
VStem: 112 60<683.8 734.946> 298 60<684.8 741.474>
AnchorPoint: "toneAnchor" 233 687 mark 0
LayerCount: 2
Fore
SplineSet
328 684.799804688 m 5
 298 684.799804688 l 5
 298 745.782226562 275.452148438 748.17578125 236.16015625 748.000976562 c 4
 204.995117188 747.862304688 172 735.525390625 172 683.799804688 c 5
 142 683.799804688 l 5
 112 683.799804688 l 5
 112 762.827148438 177.004882812 797.73828125 235.83984375 798 c 4
 298.547851562 798.279296875 358 770.692382812 358 684.799804688 c 5
 328 684.799804688 l 5
EndSplineSet
Refer: 49 32 N 1 0 0 1 138.719 169.395 2
Refer: 49 32 N 1 0 0 1 138.719 169.395 2
EndChar

StartChar: uni030B
Encoding: 779 779 82
Width: 0
VWidth: 0
Flags: W
HStem: 675 50<-94.0213 -11.7194 51.6034 132.759> 779 50<66.3119 133.861>
VStem: 134 60<721.678 777.576>
AnchorPoint: "toneAnchor" 34 705 mark 0
LayerCount: 2
Fore
SplineSet
14.6435546875 695.719726562 m 1
 -2.09375 683.728515625 -25.2236328125 675 -52 675 c 0
 -93.560546875 675 -117.352539062 699.391601562 -118.395507812 700.366210938 c 2
 -96 717 l 1
 -73.6044921875 733.634765625 l 2
 -72.4951171875 732.59765625 -61.28515625 725 -52 725 c 0
 -34.1669921875 725 -24.9970703125 730.809570312 -13.2841796875 744.34375 c 0
 4.02734375 764.348632812 25.3994140625 829 96 829 c 0
 149.235351562 829 194 801.938476562 194 755 c 0
 194 699.7421875 149.791992188 669 85 669 c 0
 53.1181640625 669 29.3505859375 683.814453125 14.6435546875 695.719726562 c 1
51.310546875 736.137695312 m 1
 61.6513671875 726.387695312 75.0654296875 719 85 719 c 0
 126.227539062 719 134 726.234375 134 755 c 0
 134 770.0625 126.788085938 779 96 779 c 0
 82.0712890625 779 73.078125 767.859375 51.310546875 736.137695312 c 1
EndSplineSet
EndChar

StartChar: eth
Encoding: 240 240 83
Width: 318
VWidth: 0
UnlinkRmOvrlpSave: 1
Flags: W
HStem: 487 50<256.822 317.148>
VStem: 15.8623 301.286
AnchorPoint: "toneAnchor" 173 813 basechar 0
LayerCount: 2
Fore
SplineSet
230 706 m 1
 258.216796875 697.508789062 l 1
 217.18359375 602.817382812 153.530273438 539.448242188 50.1376953125 479.48046875 c 1
 33 500 l 1
 15.8623046875 520.51953125 l 1
 112.469726562 576.551757812 164.81640625 629.182617188 201.783203125 714.491210938 c 1
 230 706 l 1
178.1484375 623.600585938 m 1
 205.87890625 633.139648438 l 1
 238.225585938 567.838867188 263.661132812 537 317.1484375 537 c 1
 317.1484375 512 l 1
 317.1484375 487 l 1
 222.635742188 487 182.071289062 550.161132812 150.41796875 614.061523438 c 1
 178.1484375 623.600585938 l 1
EndSplineSet
EndChar

